<svg xmlns="http://www.w3.org/2000/svg" xmlns:xlink="http://www.w3.org/1999/xlink" version="1.1" x="0px" y="0px" viewBox="0 0 100 125" style="enable-background:new 0 0 100 100;" xml:space="preserve" fill="rgb(150, 150, 150)"><path d="M52.1,19.19c-2.59-1.2-5.55-0.8-7.73,1.04l-14.6,12.32c-0.5,0.42-1.14,0.66-1.79,0.66H14.75c-4,0-7.25,3.25-7.25,7.25V50  v9.54c0,4,3.25,7.25,7.25,7.25h13.22c0.66,0,1.29,0.23,1.79,0.66l14.6,12.32c1.34,1.14,2.99,1.72,4.66,1.72  c1.04,0,2.08-0.23,3.08-0.69c2.59-1.2,4.19-3.72,4.19-6.58V50V25.77C56.29,22.92,54.69,20.4,52.1,19.19z M50.07,50v24.23  c0,0.42-0.22,0.76-0.6,0.93c-0.38,0.18-0.78,0.12-1.1-0.15l-14.6-12.32c-1.62-1.37-3.68-2.12-5.81-2.12H14.75  c-0.57,0-1.03-0.46-1.03-1.03V50v-9.54c0-0.57,0.46-1.03,1.03-1.03h13.22c2.12,0,4.18-0.75,5.81-2.12l14.6-12.33  c0.32-0.27,0.72-0.32,1.1-0.15c0.38,0.18,0.6,0.52,0.6,0.94V50z"/><path d="M64.83,37.38c-1.21-1.21-3.18-1.21-4.4,0c-1.21,1.21-1.21,3.18,0,4.4c2.2,2.2,3.4,5.11,3.4,8.22c0,3.1-1.21,6.02-3.4,8.22  c-1.21,1.21-1.21,3.18,0,4.4c0.61,0.61,1.4,0.91,2.2,0.91c0.8,0,1.59-0.3,2.2-0.91c3.37-3.37,5.23-7.85,5.23-12.62  S68.2,40.75,64.83,37.38z"/><path d="M89.55,34.84c-2.03-5-5-9.48-8.85-13.33c-1.21-1.21-3.18-1.21-4.4,0c-1.21,1.21-1.21,3.18,0,4.4  c13.28,13.28,13.28,34.89,0,48.17c-1.21,1.21-1.21,3.18,0,4.4c0.61,0.61,1.4,0.91,2.2,0.91s1.59-0.3,2.2-0.91  c3.84-3.84,6.82-8.33,8.85-13.33c1.96-4.83,2.95-9.93,2.95-15.16S91.51,39.67,89.55,34.84z"/><path d="M72.77,29.45c-1.21-1.21-3.18-1.21-4.4,0c-1.21,1.21-1.21,3.18,0,4.4c8.91,8.91,8.91,23.4,0,32.3  c-1.21,1.21-1.21,3.18,0,4.4c0.61,0.61,1.4,0.91,2.2,0.91c0.8,0,1.59-0.3,2.2-0.91c5.49-5.49,8.51-12.79,8.51-20.55  C81.28,42.24,78.26,34.94,72.77,29.45z"/></svg>