<svg xmlns="http://www.w3.org/2000/svg" xmlns:vectornator="http://vectornator.io" xmlns:xlink="http://www.w3.org/1999/xlink" stroke-miterlimit="10" style="" version="1.1" viewBox="0 0 48 60" xml:space="preserve" x="0px" y="0px" fill-rule="nonzero" clip-rule="evenodd" stroke-linecap="round" stroke-linejoin="round"><g vectornator:layerName="Layer 1"><path d="M24.1562 2C23.0517 2 22.1562 2.89543 22.1562 4L22.1562 22.1875L18.4062 18.4375C18.0157 18.047 17.5118 17.8437 17 17.8438C16.4882 17.8437 15.9843 18.047 15.5938 18.4375C14.8127 19.2185 14.8127 20.469 15.5938 21.25L22.7188 28.4062C22.726 28.4135 22.7427 28.3991 22.75 28.4062C23.1558 28.7999 23.6894 28.9871 24.2188 28.9688C24.7666 28.9951 25.3035 28.8215 25.7188 28.4062L32.8438 21.25C33.6248 20.469 33.6248 19.2185 32.8438 18.4375C32.4532 18.047 31.9493 17.8437 31.4375 17.8438C30.9257 17.8437 30.4218 18.047 30.0312 18.4375L26.1562 22.3125L26.1562 4C26.1562 2.89543 25.2608 2 24.1562 2ZM8 35.125C5.79086 35.125 4 36.9159 4 39.125C4 41.3341 5.79086 43.125 8 43.125L40 43.125C42.2091 43.125 44 41.3341 44 39.125C44 36.9159 42.2091 35.125 40 35.125L8 35.125Z" fill="rgb(150, 150, 150)" fill-rule="nonzero" opacity="1" stroke="none" vectornator:layerName="Curve 1"/></g></svg>
