<svg xmlns="http://www.w3.org/2000/svg" xmlns:xlink="http://www.w3.org/1999/xlink" xml:space="preserve" version="1.1" style="shape-rendering:geometricPrecision;text-rendering:geometricPrecision;image-rendering:optimizeQuality;" viewBox="0 0 333.33 416.66249999999997" x="0px" y="0px" fill-rule="evenodd" clip-rule="evenodd"><defs><style type="text/css">.fil0 {fill:rgb(150, 150, 150);fill-rule:nonzero}</style></defs><g><path class="fil0" d="M73.98 95.13c13.03,0 24.86,5.09 33.63,13.39l0 -97.53c0,-4.23 3.43,-7.66 7.66,-7.66 3.32,0 6.15,2.11 7.2,5.07 1.41,3.11 13.08,26.75 49.13,38.57 4.01,1.31 6.21,5.62 4.9,9.63 -1.3,4.02 -5.61,6.21 -9.63,4.91 -20.78,-6.82 -34.82,-17.37 -43.95,-26.81l0 109.37c0,13.52 -5.48,25.75 -14.33,34.61 -8.86,8.86 -21.09,14.34 -34.61,14.34 -13.52,0 -25.75,-5.48 -34.61,-14.34 -8.86,-8.86 -14.34,-21.09 -14.34,-34.61 0,-13.52 5.48,-25.75 14.34,-34.61 8.86,-8.85 21.09,-14.33 34.61,-14.33zm122.58 57.17l70.19 -10.77c4.18,-0.63 8.08,2.25 8.7,6.43 0.63,4.18 -2.25,8.07 -6.43,8.7l-72.46 11.11 0 103.08 0 0.13 0 0.13 0 0.13 -0 0.14c-0.1,16.13 -6.69,30.74 -17.28,41.33 -10.68,10.68 -25.43,17.28 -41.72,17.28 -16.29,0 -31.05,-6.61 -41.72,-17.28 -10.68,-10.68 -17.28,-25.43 -17.28,-41.72 0,-16.3 6.61,-31.05 17.28,-41.72 10.68,-10.68 25.43,-17.28 41.72,-17.28 16.3,0 31.05,6.61 41.72,17.28 0.67,0.67 1.33,1.36 1.97,2.07l0 -128.55c0,-3.93 2.97,-7.17 6.79,-7.61l111.48 -17.1c4.18,-0.63 8.07,2.25 8.7,6.43 0.63,4.18 -2.25,8.07 -6.43,8.7l-105.23 16.14 0 42.95zm-15.31 118.8l0 -0.23c-0.03,-12.02 -4.91,-22.9 -12.8,-30.78 -7.91,-7.91 -18.83,-12.8 -30.9,-12.8 -12.07,0 -22.99,4.89 -30.9,12.8 -7.91,7.91 -12.8,18.83 -12.8,30.9 0,12.07 4.89,22.99 12.8,30.9 7.91,7.91 18.83,12.8 30.9,12.8 12.07,0 22.99,-4.89 30.9,-12.8 7.88,-7.88 12.77,-18.76 12.8,-30.78zm-83.48 -150.81c-6.09,-6.09 -14.5,-9.85 -23.78,-9.85 -9.29,0 -17.7,3.76 -23.78,9.85 -6.09,6.09 -9.85,14.5 -9.85,23.78 0,9.29 3.76,17.7 9.85,23.78 6.08,6.09 14.49,9.85 23.78,9.85 9.29,0 17.7,-3.76 23.78,-9.85 6.09,-6.08 9.85,-14.49 9.85,-23.78 0,-9.29 -3.76,-17.7 -9.85,-23.78z"/></g></svg>