<svg xmlns:dc="http://purl.org/dc/elements/1.1/" xmlns:cc="http://creativecommons.org/ns#" xmlns:rdf="http://www.w3.org/1999/02/22-rdf-syntax-ns#" xmlns:svg="http://www.w3.org/2000/svg" xmlns="http://www.w3.org/2000/svg" xmlns:sodipodi="http://sodipodi.sourceforge.net/DTD/sodipodi-0.dtd" xmlns:inkscape="http://www.inkscape.org/namespaces/inkscape" version="1.1" x="0px" y="0px" viewBox="0 0 100 125"><g transform="translate(0,52)"><path style="" d="m 36.735338,-47 0,9.889065 26.529322,0 0,-9.889065 -26.529322,0 z m 13.264663,13.597464 c -21.098104,0 -38.201272,17.10317 -38.201272,38.201268 C 11.798729,25.89683 28.901897,43 50.000001,43 71.0981,43 88.201272,25.89683 88.201272,4.798732 c 0,-9.0128706 -3.123415,-17.286378 -8.343898,-23.819334 l 6.085578,-6.513471 -7.083994,-6.63233 -5.966719,6.394612 c -6.378253,-4.778685 -14.309131,-7.630745 -22.892238,-7.630745 z m 0,8.985737 c 16.143913,0 29.239306,13.071616 29.239306,29.215531 0,16.143915 -13.095393,29.239303 -29.239306,29.239303 -16.143918,0 -29.239307,-13.095388 -29.239307,-29.239303 0,-16.143915 13.095389,-29.215531 29.239307,-29.215531 z m 4.77813,7.606973 -9.722667,0.237718 0.166403,24.675119 9.722666,-0.237718 -0.166402,-24.675119 z" fill="rgb(150, 150, 150)" fill-opacity="1" fill-rule="nonzero" stroke="none"/></g></svg>