<svg xmlns="http://www.w3.org/2000/svg" xmlns:xlink="http://www.w3.org/1999/xlink" version="1.1" x="0px" y="0px" viewBox="0 0 48 60" style="enable-background:new 0 0 48 48;" xml:space="preserve" fill="white"><g><g><path d="M6.8,26.8L24,9.7l17.2,17.2C42,27.6,43,28,44,28s2-0.4,2.8-1.2c1.6-1.6,1.6-4.1,0-5.7l-20-20c-1.6-1.6-4.1-1.6-5.7,0    l-20,20c-1.6,1.6-1.6,4.1,0,5.7C2.7,28.4,5.3,28.4,6.8,26.8z"/><path d="M26.8,21.2c-1.6-1.6-4.1-1.6-5.7,0l-20,20c-1.6,1.6-1.6,4.1,0,5.7c1.6,1.6,4.1,1.6,5.7,0L24,29.7l17.2,17.2    C42,47.6,43,48,44,48s2-0.4,2.8-1.2c1.6-1.6,1.6-4.1,0-5.7L26.8,21.2z"/></g></g></svg>