<svg xmlns="http://www.w3.org/2000/svg" version="1.1" viewBox="-5.0 -10.0 110.0 135.0" fill="white">
 <path d="m37.574 35.258c-1.1484 0.070313-2.0234 1.0586-1.9531 2.207l2.668 43.918c0.066407 1.1523 1.0703 2.0273 2.207 1.9531 1.1484-0.070313 2.0234-1.0586 1.9531-2.207l-2.668-43.918c-0.070312-1.1484-1.0664-2.0391-2.207-1.9531z"/>
 <path d="m60.219 37.211-2.6641 43.918c-0.070313 1.1484 0.80469 2.1367 1.9531 2.207 1.1367 0.074218 2.1406-0.80078 2.207-1.9531l2.6641-43.918c0.12109-2.7109-3.9258-3.0078-4.1602-0.25391z"/>
 <path d="m75.707 17.562h-15.77v-3c0-3.4336-2.793-6.2305-6.2266-6.2305h-7.418c-3.4336 0-6.2305 2.793-6.2305 6.2305v5.0938c0 1.1523 0.93359 2.082 2.082 2.082 0.14844-0.003906 15.617-0.015625 15.754-0.007812h17.785l0.019531 5.1875h-48.953l-2.4375 0.019531-0.019531-5.207h9.5195c2.7461-0.042969 2.7305-4.125 0-4.168h-9.5195c-2.2852 0-4.1445 1.8672-4.1445 4.168v5.207c-0.011719 2.4961 2.1914 4.3672 4.6445 4.1445l3.1719 52.047c0.29688 4.7891 4.2852 8.5391 9.0781 8.5391h25.918c4.793 0 8.7812-3.75 9.0781-8.5391l0.47656-7.793c0.070313-1.1484-0.80469-2.1367-1.9492-2.207-1.1758-0.0625-2.1367 0.80078-2.207 1.9531l-0.47656 7.7891c-0.16406 2.5977-2.3242 4.6289-4.9219 4.6289h-25.918c-2.5977 0-4.7578-2.0352-4.9219-4.6289l-3.1562-51.789h42.074l-2.1797 35.664c-0.13672 2.7109 3.9453 3.0039 4.1602 0.25391 0 0 2.1953-35.918 2.1953-35.918 2.4453 0.22266 4.6602-1.6484 4.6445-4.1445v-5.207c0-2.2969-1.8594-4.168-4.1445-4.168zm-19.934 0h-11.543v-3c0-1.1367 0.92578-2.0625 2.0625-2.0625h7.418c1.1367 0 2.0625 0.92578 2.0625 2.0625z"/>
 <path d="m47.918 37.336v43.918c0 1.1523 0.93359 2.082 2.082 2.082 1.1523 0 2.082-0.93359 2.082-2.082v-43.918c-0.042969-2.7227-4.1172-2.75-4.168 0z"/>
</svg>