<svg xmlns="http://www.w3.org/2000/svg" viewBox="0 0 25 26.25" fill="none" x="0px" y="0px"><path d="M23.6693 0.013916H1.66931C1.4041 0.013916 1.14974 0.119273 0.962205 0.306809C0.774668 0.494346 0.669312 0.7487 0.669312 1.01392L0.669312 15.0139C0.669312 15.2791 0.774668 15.5335 0.962205 15.721C1.14974 15.9086 1.4041 16.0139 1.66931 16.0139H9.66931V18.0139H8.16931C8.0367 18.0139 7.90953 18.0666 7.81576 18.1604C7.72199 18.2541 7.66931 18.3813 7.66931 18.5139V19.5139C7.66931 19.6465 7.72199 19.7737 7.81576 19.8675C7.90953 19.9612 8.0367 20.0139 8.16931 20.0139H17.1693C17.3019 20.0139 17.4291 19.9612 17.5229 19.8675C17.6166 19.7737 17.6693 19.6465 17.6693 19.5139V18.5139C17.6693 18.3813 17.6166 18.2541 17.5229 18.1604C17.4291 18.0666 17.3019 18.0139 17.1693 18.0139H15.6693V16.0139H23.6693C23.9345 16.0139 24.1889 15.9086 24.3764 15.721C24.564 15.5335 24.6693 15.2791 24.6693 15.0139V1.01392C24.6693 0.7487 24.564 0.494346 24.3764 0.306809C24.1889 0.119273 23.9345 0.013916 23.6693 0.013916ZM22.6693 14.0139H2.66931V2.01392H22.6693V14.0139Z" fill="rgb(150, 150, 150)"/></svg>