<svg xmlns="http://www.w3.org/2000/svg" version="1.1" viewBox="-5.0 -10.0 110.0 135.0"><path d="m72.434 22.688c-2.0352-2.0352-5.332-2.0352-7.3672 0l-4.3984 4.3984 12.25 12.246 4.3984-4.3984c2.0312-2.0352 2.0312-5.332 0-7.3672zm2.6914 23.273v0.003906l-39.582 39.578c-0.58594 0.58594-1.3789 0.91797-2.2109 0.91797h-16.664c-1.7266 0-3.125-1.4023-3.125-3.125v-16.668c0-0.82812 0.32812-1.625 0.91406-2.2109l46.191-46.191c4.4727-4.4727 11.73-4.4727 16.203 0l4.8828 4.8828c4.4727 4.4766 4.4727 11.73 0 16.203zm-18.875-14.457-36.457 36.457v12.25h12.246l36.457-36.461z" fill-rule="evenodd" fill="white"/></svg>