<?xml version="1.0" encoding="utf-8"?>
<svg viewBox="195.104 215.7685 80.05 80.05" xmlns="http://www.w3.org/2000/svg" fill="white">
  <circle cx="50.401" cy="34.282" r="3.5" style="stroke: rgb(150, 150, 150); stroke-width: 2px;" transform="matrix(1, 0, 0, 1, 186.22804537755312, 202.47845760700784)"/>
  <g transform="matrix(1, 0, 0, 1, 186.22804537755312, 202.47845760700784)">
    <path d="M50.401,19.842c17.629,0,31.972,14.343,31.972,31.972S68.03,83.786,50.401,83.786 S18.428,69.444,18.428,51.814S32.771,19.842,50.401,19.842 M50.401,16.29c-19.62,0-35.525,15.905-35.525,35.525 s15.905,35.525,35.525,35.525s35.525-15.905,35.525-35.525S70.02,16.29,50.401,16.29L50.401,16.29z" style="stroke-dashoffset: -1px; stroke: rgb(150, 150, 150); stroke-width: 3px;"/>
    <rect x="47.914" y="48.569" width="4.973" height="24.284" style="stroke: rgb(150, 150, 150); stroke-width: 2px; stroke-linejoin: round; stroke-linecap: round;"/>
  </g>
</svg>