<svg xmlns="http://www.w3.org/2000/svg" version="1.1" viewBox="-5.0 -10.0 110.0 135.0"><path d="m30.656 61.102-9.4492 23.996c-0.20312 0.51562-0.11719 1.1016 0.22266 1.5352 0.34375 0.4375 0.89062 0.66016 1.4375 0.58203l11.656-1.5664s7.4531 9.0938 7.4531 9.0938c0.35156 0.42578 0.90625 0.63672 1.4531 0.55078 0.54687-0.085938 1.0078-0.45312 1.2109-0.96875l5.6289-14.301 5.6289 14.301c0.20312 0.51562 0.66406 0.88281 1.2109 0.96875 0.55078 0.085937 1.1016-0.125 1.4531-0.55078l7.4531-9.0938 11.652 1.5664c0.55078 0.078125 1.0977-0.14453 1.4375-0.58203 0.34375-0.43359 0.42969-1.0195 0.22656-1.5352l-9.5742-24.32c7.1719-5.7812 11.77-14.641 11.77-24.562 0-17.402-14.129-31.527-31.527-31.527s-31.523 14.125-31.523 31.527c0 10.109 4.7695 19.113 12.18 24.887zm36.488 1.5664c-4.9336 3.207-10.824 5.0703-17.145 5.0703-0.40625 0-0.81641-0.007812-1.2188-0.023437l9.0508 22.984 6.3203-7.7031c0.34375-0.42188 0.87891-0.63281 1.418-0.5625l9.8789 1.332zm-33.855 0.27344-8.1992 20.824 9.8789-1.332c0.53906-0.070313 1.0742 0.14062 1.418 0.5625 0 0 6.3203 7.7031 6.3203 7.7031l5.8828-14.941-3.2383-8.2305c-0.019531-0.046875-0.035156-0.09375-0.046874-0.14062-4.3594-0.64844-8.4297-2.1953-12.016-4.4453zm16.711-55.129c15.676 0 28.402 12.727 28.402 28.402 0 15.672-12.727 28.398-28.402 28.398s-28.398-12.727-28.398-28.398c0-15.676 12.723-28.402 28.398-28.402zm0 4.5039c-13.188 0-23.898 10.707-23.898 23.898 0 13.188 10.711 23.895 23.898 23.895 13.191 0 23.898-10.707 23.898-23.895 0-13.191-10.707-23.898-23.898-23.898zm0 3.125c11.465 0 20.773 9.3047 20.773 20.773 0 11.465-9.3086 20.77-20.773 20.77-11.461 0-20.773-9.3047-20.773-20.77 0-11.469 9.3125-20.773 20.773-20.773zm-6.3945 11.973-7.7383 2.9258c-0.44531 0.16406-0.78906 0.52734-0.9375 0.97656-0.14453 0.44922-0.078126 0.94531 0.18359 1.3398l4.543 6.918 0.38672 8.2656c0.027343 0.47656 0.26172 0.91406 0.64453 1.1914s0.87109 0.37109 1.332 0.24609l7.9805-2.1875 7.9844 2.1875c0.45703 0.125 0.94531 0.03125 1.332-0.24609 0.38281-0.27734 0.61719-0.71484 0.64062-1.1914l0.39062-8.2656 4.543-6.918c0.26172-0.39453 0.32812-0.89062 0.17969-1.3398-0.14453-0.44922-0.48828-0.8125-0.93359-0.97656l-7.7383-2.9258-5.1758-6.4609c-0.29688-0.37109-0.74609-0.58594-1.2227-0.58594-0.47266 0-0.92188 0.21484-1.2188 0.58594zm6.3945-2.9844 4.0664 5.0703c0.13672 0.17188 0.30078 0.32812 0.47656 0.46094 0.18359 0.12891 0.37891 0.23437 0.58984 0.3125l6.0781 2.3008s-3.5703 5.4297-3.5703 5.4297c-0.12109 0.18359-0.21875 0.38672-0.28906 0.59766-0.066406 0.21094-0.10937 0.42969-0.11719 0.65234 0 0-0.30469 6.4922-0.30469 6.4922l-6.2695-1.7148c-0.21484-0.058594-0.43359-0.085938-0.66016-0.085938-0.22266 0-0.44531 0.027344-0.65625 0.085938l-6.2695 1.7148s-0.30469-6.4922-0.30469-6.4922c-0.011719-0.22266-0.050781-0.44141-0.12109-0.65234-0.066407-0.21094-0.16406-0.41406-0.28516-0.59766 0 0-3.5703-5.4297-3.5703-5.4297l6.0781-2.3008c0.21094-0.078126 0.40625-0.18359 0.58594-0.3125 0.17969-0.13281 0.34375-0.28906 0.48047-0.46094z" fill-rule="evenodd" fill="white"/></svg>