<svg xmlns="http://www.w3.org/2000/svg" version="1.1" viewBox="-5.0 -10.0 110.0 135.0">
 <g>
  <path d="m77.129 23.609v52.789h-6.4883v-52.789h6.4883m1.9219-5h-10.332c-1.6992 0-3.0781 1.3789-3.0781 3.0781v56.629c0 1.6992 1.3789 3.0781 3.0781 3.0781h10.34c1.6992 0 3.0781-1.3789 3.0703-3.0781v-56.625c0-1.7031-1.3789-3.082-3.0781-3.082z" fill="white"/>
  <path d="m21.531 23.578c0.03125 0 0.10938 0.019531 0.23828 0.12109l34.859 24.039c0.55859 0.37891 0.92188 1.2695 0.92188 2.2617 0 0.98828-0.35938 1.8789-0.92969 2.2695l-34.852 24.031c-0.12109 0.089844-0.21094 0.12109-0.23828 0.12109-0.28125 0-1.1797-0.73828-1.1797-2.3906v-48.062c0-1.6406 0.91016-2.3906 1.1797-2.3906m0-5c-3.2305 0-6.1797 3.0781-6.1797 7.3906v48.059c0 4.3086 2.9609 7.3906 6.1797 7.3906 1.0312 0 2.0781-0.30859 3.0781-1l34.852-24.039c4.1211-2.8281 4.1211-9.9414 0-12.77l-34.852-24.031c-1-0.6875-2.0508-1-3.0781-1z" fill="white"/>
 </g>
</svg>