<svg xmlns="http://www.w3.org/2000/svg" xmlns:xlink="http://www.w3.org/1999/xlink" version="1.1" x="0px" y="0px" viewBox="0 0 1024 1280" xml:space="preserve"><g ><g><path fill="white" d="M424.05,820.48c-5.06,0-10.13-1.24-14.75-3.73c-10.44-5.64-16.92-16.66-16.92-28.77V236.02c0-12.1,6.48-23.12,16.91-28.76    c10.05-5.43,22.24-4.91,31.81,1.36l256.1,167.62L862.75,484.6c9.16,5.99,14.63,16.23,14.63,27.4s-5.47,21.41-14.63,27.4    L441.1,815.38C435.94,818.76,430,820.48,424.05,820.48z M416.46,777.72c-0.01,0.01-0.02,0.01-0.03,0.02L416.46,777.72z     M437.38,259.96v504.07L822.44,512L632.13,387.43L437.38,259.96z"/></g><g><path d="M279.18,820.5h-93.12c-21.75,0-39.44-17.69-39.44-39.44V242.94c0-21.75,17.69-39.44,39.44-39.44h93.12    c21.75,0,39.44,17.69,39.44,39.44v538.12C318.62,802.81,300.93,820.5,279.18,820.5z M191.62,775.5h82v-527h-82V775.5z" fill="white"/></g></g></svg>