<svg xmlns:dc="http://purl.org/dc/elements/1.1/" xmlns:cc="http://creativecommons.org/ns#" xmlns:rdf="http://www.w3.org/1999/02/22-rdf-syntax-ns#" xmlns:svg="http://www.w3.org/2000/svg" xmlns="http://www.w3.org/2000/svg" xmlns:sodipodi="http://sodipodi.sourceforge.net/DTD/sodipodi-0.dtd" xmlns:inkscape="http://www.inkscape.org/namespaces/inkscape" version="1.1" x="0px" y="0px" viewBox="0 0 100 125"><g transform="translate(0,-952.36218)"><path style="text-indent:0;text-transform:none;direction:ltr;block-progression:tb;baseline-shift:baseline;color:#000000;enable-background:accumulate;" d="m 38.812684,982.37772 c -1.20791,0.026 -2.40373,0.3656 -3.40625,0.9687 -2.00504,1.2062 -3.35007,3.4738 -3.40625,6.0313 a 3.0003,3.0003 0 0 0 0,0.062 l 0,25.81248 a 3.0003,3.0003 0 0 0 0,0.094 c 0.0563,2.5571 1.40443,4.8188 3.40625,6.0312 2.00182,1.2124 4.70527,1.3381 6.96875,0.094 a 3.0003,3.0003 0 0 0 0.0937,-0.031 l 22.0313,-12.9687 c 2.06979,-1.219 3.5,-3.5336 3.5,-6.125 0,-2.59138 -1.43006,-4.87478 -3.5,-6.09368 l -22.03125,-12.9375 a 3.0003,3.0003 0 0 0 -0.0937,-0.062 c -1.12949,-0.621 -2.35459,-0.9006 -3.5625,-0.875 z m -0.3125,6.125 c 0.26219,-0.1578 0.5176,-0.234 1,0.031 l 21.96875,12.87498 c 0.33128,0.195 0.53125,0.4926 0.53125,0.9375 0,0.4448 -0.19982,0.7423 -0.53125,0.9375 l -21.96875,12.9375 c -0.0154,0.01 -0.0164,-0.01 -0.0312,0 -0.44727,0.2335 -0.68068,0.1868 -0.9375,0.031 -0.26537,-0.1607 -0.51785,-0.4539 -0.53125,-1.0625 l 0,-25.68748 c 0.0134,-0.6084 0.23781,-0.8423 0.5,-1 z" fill="white" fill-opacity="1" stroke="none" marker="none" visibility="visible" display="inline" overflow="visible"/></g></svg>