<svg xmlns="http://www.w3.org/2000/svg" data-name="Layer 1" viewBox="0 0 64 80" x="0px" y="0px"><path fill="white" d="m29.8,53.8c6.192,0,12.112-2.649,16.242-7.267.736-.823.665-2.088-.158-2.824-.824-.735-2.088-.665-2.824.158-3.371,3.771-8.204,5.933-13.26,5.933-9.814,0-17.8-7.985-17.8-17.8s7.985-17.8,17.8-17.8c8.269,0,15.219,5.677,17.209,13.332l-2.086-1.58c-.881-.669-2.136-.493-2.802.387-.667.88-.493,2.135.388,2.802l5.886,4.458c.012.009.028.012.04.021.144.104.303.187.472.25.049.018.097.031.148.046.154.044.313.073.479.078.023,0,.045.011.068.011.097,0,.193-.007.29-.021.03-.004.057-.016.086-.022.03-.006.058-.015.087-.022.1-.024.197-.052.291-.09.026-.011.051-.024.076-.036.093-.043.184-.09.269-.146.021-.014.039-.03.059-.044.085-.061.167-.125.242-.199.017-.017.031-.036.047-.053.057-.06.117-.118.167-.186l4.404-6.019c.652-.892.458-2.143-.434-2.795-.891-.653-2.143-.457-2.795.433l-1.432,1.958c-2.352-9.498-10.945-16.562-21.159-16.562-12.021,0-21.8,9.779-21.8,21.8s9.779,21.8,21.8,21.8Z"/></svg>