<svg xmlns="http://www.w3.org/2000/svg" xmlns:xlink="http://www.w3.org/1999/xlink" version="1.1" x="0px" y="0px" viewBox="0 0 100 100" style="enable-background:new 0 0 100 100;" xml:space="preserve"><g><path d="M52.56,32.38c-9.37,0-17,7.63-17,17s7.63,17,17,17s17-7.63,17-17S61.93,32.38,52.56,32.38z M52.56,60.38   c-6.07,0-11-4.93-11-11s4.93-11,11-11s11,4.93,11,11S58.62,60.38,52.56,60.38z" fill="white"/><path d="M86.59,52.86l-1.67-0.97c-0.85-0.49-1.36-1.42-1.36-2.48v-0.07c0-1.06,0.51-1.99,1.36-2.48l1.67-0.97   c4.19-2.42,5.64-7.8,3.21-12l-5.22-9.04c-1.17-2.03-3.07-3.48-5.33-4.09c-2.26-0.61-4.63-0.3-6.66,0.88l-1.65,0.95   c-0.86,0.5-1.92,0.49-2.77,0l-0.23-0.14c-0.85-0.49-1.38-1.4-1.38-2.39v-1.9c0-4.84-3.94-8.78-8.78-8.78H47.34   c-4.84,0-8.78,3.94-8.78,8.78v1.9c0,0.99-0.53,1.91-1.38,2.4l-0.23,0.14c-0.85,0.5-1.91,0.5-2.77,0l-1.65-0.95   c-2.03-1.17-4.4-1.49-6.66-0.88c-2.27,0.61-4.16,2.06-5.33,4.09l-5.22,9.04c-2.42,4.19-0.98,9.58,3.21,12l1.67,0.97   c0.85,0.49,1.36,1.42,1.36,2.56c0,1.06-0.51,1.99-1.36,2.48l-1.67,0.97c-2.03,1.17-3.48,3.07-4.09,5.33   c-0.61,2.27-0.3,4.63,0.88,6.66l5.22,9.04c1.17,2.03,3.07,3.48,5.33,4.09c2.27,0.61,4.63,0.3,6.66-0.88l1.65-0.95   c0.86-0.5,1.92-0.49,2.77,0l0.23,0.14c0.85,0.49,1.38,1.4,1.38,2.39v1.9c0,4.84,3.94,8.78,8.78,8.78h10.43   c4.84,0,8.78-3.94,8.78-8.78v-1.9c0-0.99,0.53-1.91,1.38-2.4l0.23-0.14c0.85-0.5,1.91-0.5,2.77,0l1.65,0.95   c2.03,1.17,4.4,1.48,6.67,0.88c2.27-0.61,4.16-2.06,5.33-4.09l5.22-9.04c1.17-2.03,1.48-4.4,0.88-6.66   C90.08,55.93,88.62,54.03,86.59,52.86z M84.61,61.86l-5.22,9.04c-0.37,0.64-0.97,1.1-1.69,1.3c-0.72,0.19-1.47,0.09-2.11-0.28   l-1.65-0.95c-2.72-1.57-6.09-1.56-8.79,0.02l-0.19,0.11c-2.71,1.55-4.4,4.47-4.4,7.6v1.9c0,1.53-1.25,2.78-2.78,2.78H47.34   c-1.53,0-2.78-1.25-2.78-2.78v-1.9c0-3.14-1.69-6.05-4.4-7.6l-0.19-0.11c-1.36-0.79-2.88-1.19-4.41-1.19   c-1.51,0-3.03,0.39-4.39,1.17l-1.65,0.95c-0.64,0.37-1.39,0.47-2.11,0.28s-1.32-0.65-1.69-1.3l-5.22-9.04   c-0.37-0.64-0.47-1.39-0.28-2.11s0.65-1.32,1.3-1.69l1.67-0.97c2.69-1.56,4.37-4.5,4.36-7.74c0-3.18-1.67-6.13-4.36-7.68   l-1.67-0.97c-1.33-0.77-1.79-2.47-1.02-3.8l5.22-9.04c0.37-0.64,0.97-1.1,1.69-1.3c0.72-0.19,1.47-0.09,2.11,0.28l1.65,0.95   c2.72,1.57,6.09,1.56,8.79-0.02l0.19-0.11c2.71-1.55,4.4-4.47,4.4-7.6v-1.9c0-1.53,1.25-2.78,2.78-2.78h10.43   c1.53,0,2.78,1.25,2.78,2.78v1.9c0,3.14,1.69,6.05,4.4,7.6l0.19,0.11c2.71,1.58,6.08,1.59,8.8,0.02l1.65-0.95   c0.64-0.37,1.39-0.47,2.11-0.28c0.72,0.19,1.32,0.65,1.69,1.3l5.22,9.04c0.77,1.33,0.31,3.03-1.02,3.8l-1.67,0.97   c-2.69,1.56-4.37,4.5-4.36,7.68l3,0.03l-3,0.03c0,3.18,1.67,6.13,4.36,7.68l1.67,0.97c0.64,0.37,1.1,0.97,1.3,1.69   S84.98,61.21,84.61,61.86z" fill="white"/></g></svg>