<svg xmlns="http://www.w3.org/2000/svg" xmlns:vectornator="http://vectornator.io" xmlns:xlink="http://www.w3.org/1999/xlink" stroke-miterlimit="10" style="" version="1.1" viewBox="0 0 48 60" xml:space="preserve" x="0px" y="0px" fill-rule="nonzero" clip-rule="evenodd" stroke-linecap="round" stroke-linejoin="round"><g vectornator:layerName="Layer 1"><path d="M24.1562 2C23.6539 2 23.1385 2.21731 22.75 2.59375C22.7426 2.60087 22.726 2.5865 22.7188 2.59375L15.5938 9.75C14.8127 10.531 14.8127 11.7815 15.5938 12.5625C16.3748 13.3435 17.6252 13.3435 18.4062 12.5625L22.1562 8.8125L22.1562 27C22.1562 28.1046 23.0517 29 24.1562 29C25.2608 29 26.1563 28.1046 26.1562 27L26.1562 8.6875L30.0312 12.5625C30.8123 13.3435 32.0627 13.3435 32.8438 12.5625C33.6248 11.7815 33.6248 10.531 32.8438 9.75L25.7188 2.59375C25.3282 2.20323 24.7931 2 24.2812 2C24.2579 2 24.2421 2.0304 24.2188 2.03125C24.1954 2.0304 24.1796 2 24.1562 2ZM8 35.125C5.79086 35.125 4 36.9159 4 39.125C4 41.3341 5.79086 43.125 8 43.125L40 43.125C42.2091 43.125 44 41.3341 44 39.125C44 36.9159 42.2091 35.125 40 35.125L8 35.125Z" fill="rgb(150, 150, 150)" fill-rule="nonzero" opacity="1" stroke="none" vectornator:layerName="Curve 1"/></g></svg>